<?xml version="1.0" encoding="UTF-8"?>
<svg id="Layer_1" data-name="Layer 1" xmlns="http://www.w3.org/2000/svg" width="87.96" height="85.79" viewBox="0 0 87.96 85.79">
  <defs>
    <style>
      .cls-1 {
        fill: #1b1f23;
        fill-rule: evenodd;
      }
    </style>
  </defs>
  <path class="cls-1" d="M43.98,0C19.68,0,0,19.68,0,43.98c0,19.46,12.59,35.9,30.07,41.72,2.2,.38,3.02-.93,3.02-2.09,0-1.04-.05-4.51-.05-8.19-11.05,2.03-13.91-2.69-14.79-5.17-.49-1.26-2.64-5.17-4.51-6.21-1.54-.82-3.74-2.86-.05-2.91,3.46-.05,5.94,3.19,6.76,4.51,3.96,6.65,10.28,4.78,12.81,3.63,.38-2.86,1.54-4.78,2.8-5.88-9.79-1.1-20.01-4.89-20.01-21.71,0-4.78,1.7-8.74,4.51-11.82-.44-1.1-1.98-5.61,.44-11.65,0,0,3.68-1.15,12.09,4.51,3.52-.99,7.26-1.48,10.99-1.48s7.48,.49,10.99,1.48c8.41-5.72,12.09-4.51,12.09-4.51,2.42,6.05,.88,10.55,.44,11.65,2.8,3.08,4.51,6.98,4.51,11.82,0,16.88-10.28,20.61-20.07,21.71,1.59,1.37,2.97,4.01,2.97,8.14,0,5.88-.05,10.61-.05,12.09,0,1.15,.82,2.53,3.02,2.09,17.37-5.83,29.96-22.32,29.96-41.72C87.96,19.68,68.28,0,43.98,0Z"/>
</svg>