<?xml version="1.0" encoding="UTF-8"?>
<svg id="Layer_1" data-name="Layer 1" xmlns="http://www.w3.org/2000/svg" width="84" height="84" viewBox="0 0 84 84">
  <defs>
    <style>
      .cls-1 {
        fill: #fff;
      }

      .cls-2 {
        fill: #069;
      }
    </style>
  </defs>
  <path class="cls-2" d="M0,6.02C0,2.7,2.78,0,6.21,0H77.79c3.43,0,6.21,2.7,6.21,6.02V77.98c0,3.32-2.78,6.02-6.21,6.02H6.21c-3.43,0-6.21-2.69-6.21-6.02V6.02H0Z"/>
  <path class="cls-1" d="M25.53,70.3V32.48H12.96v37.82h12.57Zm-6.28-42.98c4.38,0,7.11-2.9,7.11-6.53-.08-3.71-2.73-6.53-7.03-6.53s-7.11,2.82-7.11,6.53,2.73,6.53,6.95,6.53h.08Zm13.24,42.98h12.57v-21.12c0-1.13,.08-2.26,.41-3.07,.91-2.26,2.98-4.6,6.45-4.6,4.55,0,6.37,3.47,6.37,8.55v20.23h12.57v-21.68c0-11.62-6.2-17.02-14.47-17.02-6.78,0-9.76,3.79-11.41,6.37h.08v-5.48h-12.57c.16,3.55,0,37.82,0,37.82h0Z"/>
</svg>