<?xml version="1.0" encoding="UTF-8"?>
<svg id="Layer_1" data-name="Layer 1" xmlns="http://www.w3.org/2000/svg" viewBox="0 0 269.22 186.04">
  <defs>
    <style>
      .cls-1 {
        fill: #fff;
      }

      .cls-2 {
        fill: #f9f9fa;
      }
    </style>
  </defs>
  <rect x="37.37" y="19.13" width="201.02" height="142.67" rx="5.45" ry="5.45"/>
  <path class="cls-1" d="M125.47,118.49v-23.15c0-.42-.22-.81-.58-1.03L59.14,53.81c-.19-.12-.41-.18-.64-.18h-10.66c-.67,0-1.21,.54-1.21,1.21v96.74c0,.67,.54,1.21,1.21,1.21h34.24c.67,0,1.21-.54,1.21-1.21v-54.16c0-.94,1.03-1.52,1.84-1.04l38.5,23.14c.81,.49,1.84-.1,1.84-1.04Z"/>
  <path class="cls-1" d="M217.54,53.81l-68.03,41.84c-.36,.22-.58,.61-.58,1.03v23.1c0,.94,1.03,1.52,1.84,1.04l40.67-24.44c.81-.48,1.83,.1,1.84,1.04l.11,54.17c0,.67,.54,1.21,1.21,1.21h34.24c.67,0,1.21-.54,1.21-1.21V54.85c0-.67-.54-1.21-1.21-1.21h-10.67c-.22,0-.44,.06-.63,.18Z"/>
  <path class="cls-2" d="M230.05,29.08v19.51c0,.78-.63,1.41-1.41,1.41h-80.12c-.78,0-1.41,.63-1.41,1.41v99.99c0,.78-.63,1.41-1.41,1.41h-17.02c-.78,0-1.41-.63-1.41-1.41V51.4c0-.78-.63-1.41-1.41-1.41H48.04c-.78,0-1.41-.63-1.41-1.41V29.08c0-.78,.63-1.41,1.41-1.41H228.64c.78,0,1.41,.63,1.41,1.41Z"/>
</svg>